<svg width="1200" height="675" viewBox="0 0 1200 675" fill="none" xmlns="http://www.w3.org/2000/svg">
  <rect width="1200" height="675" fill="#0f172a"/>
  <!-- Top bar -->
  <rect width="1200" height="48" fill="#1e293b"/>
  <circle cx="24" cy="24" r="6" fill="#ef4444"/>
  <circle cx="44" cy="24" r="6" fill="#eab308"/>
  <circle cx="64" cy="24" r="6" fill="#22c55e"/>
  <!-- Sidebar -->
  <rect y="48" width="240" height="627" fill="#1e293b"/>
  <rect x="20" y="72" width="200" height="32" rx="6" fill="#334155"/>
  <rect x="20" y="120" width="160" height="24" rx="4" fill="#334155" opacity="0.6"/>
  <rect x="20" y="156" width="180" height="24" rx="4" fill="#334155" opacity="0.6"/>
  <rect x="20" y="192" width="140" height="24" rx="4" fill="#334155" opacity="0.6"/>
  <rect x="20" y="228" width="170" height="24" rx="4" fill="#334155" opacity="0.6"/>
  <!-- Main content area -->
  <rect x="280" y="80" width="420" height="36" rx="6" fill="#334155"/>
  <!-- AI Content Cards -->
  <rect x="280" y="140" width="400" height="180" rx="12" fill="#1e293b" stroke="#334155" stroke-width="1"/>
  <rect x="300" y="160" width="120" height="20" rx="4" fill="#6366f1" opacity="0.3"/>
  <rect x="300" y="192" width="360" height="12" rx="3" fill="#334155"/>
  <rect x="300" y="212" width="340" height="12" rx="3" fill="#334155"/>
  <rect x="300" y="232" width="280" height="12" rx="3" fill="#334155"/>
  <rect x="300" y="264" width="100" height="32" rx="6" fill="#6366f1"/>
  <rect x="720" y="140" width="400" height="180" rx="12" fill="#1e293b" stroke="#334155" stroke-width="1"/>
  <rect x="740" y="160" width="100" height="20" rx="4" fill="#6366f1" opacity="0.3"/>
  <rect x="740" y="192" width="360" height="12" rx="3" fill="#334155"/>
  <rect x="740" y="212" width="320" height="12" rx="3" fill="#334155"/>
  <rect x="740" y="232" width="300" height="12" rx="3" fill="#334155"/>
  <rect x="740" y="264" width="100" height="32" rx="6" fill="#6366f1"/>
  <!-- Stats row -->
  <rect x="280" y="350" width="180" height="100" rx="12" fill="#1e293b" stroke="#334155" stroke-width="1"/>
  <rect x="300" y="370" width="60" height="16" rx="3" fill="#334155"/>
  <rect x="300" y="400" width="100" height="28" rx="4" fill="#6366f1" opacity="0.2"/>
  <rect x="500" y="350" width="180" height="100" rx="12" fill="#1e293b" stroke="#334155" stroke-width="1"/>
  <rect x="520" y="370" width="60" height="16" rx="3" fill="#334155"/>
  <rect x="520" y="400" width="100" height="28" rx="4" fill="#22c55e" opacity="0.2"/>
  <rect x="720" y="350" width="180" height="100" rx="12" fill="#1e293b" stroke="#334155" stroke-width="1"/>
  <rect x="740" y="370" width="60" height="16" rx="3" fill="#334155"/>
  <rect x="740" y="400" width="100" height="28" rx="4" fill="#eab308" opacity="0.2"/>
  <!-- Label -->
  <text x="600" y="560" text-anchor="middle" fill="#6366f1" font-family="system-ui" font-size="18" font-weight="600" opacity="0.6">AI Social Content Generator</text>
</svg>
