<svg width="1200" height="675" viewBox="0 0 1200 675" fill="none" xmlns="http://www.w3.org/2000/svg">
  <rect width="1200" height="675" fill="#0f172a"/>
  <!-- Top bar -->
  <rect width="1200" height="48" fill="#1e293b"/>
  <circle cx="24" cy="24" r="6" fill="#ef4444"/>
  <circle cx="44" cy="24" r="6" fill="#eab308"/>
  <circle cx="64" cy="24" r="6" fill="#22c55e"/>
  <!-- Sidebar -->
  <rect y="48" width="220" height="627" fill="#1e293b"/>
  <rect x="16" y="68" width="188" height="28" rx="6" fill="#334155"/>
  <rect x="16" y="112" width="150" height="20" rx="4" fill="#6366f1" opacity="0.3"/>
  <rect x="16" y="144" width="140" height="20" rx="4" fill="#334155" opacity="0.5"/>
  <rect x="16" y="176" width="160" height="20" rx="4" fill="#334155" opacity="0.5"/>
  <rect x="16" y="208" width="130" height="20" rx="4" fill="#334155" opacity="0.5"/>
  <rect x="16" y="240" width="155" height="20" rx="4" fill="#334155" opacity="0.5"/>
  <rect x="16" y="272" width="120" height="20" rx="4" fill="#334155" opacity="0.5"/>
  <rect x="16" y="304" width="145" height="20" rx="4" fill="#334155" opacity="0.5"/>
  <!-- Main Dashboard -->
  <!-- Stats cards -->
  <rect x="260" y="72" width="220" height="100" rx="12" fill="#1e293b" stroke="#334155" stroke-width="1"/>
  <rect x="280" y="92" width="80" height="14" rx="3" fill="#334155"/>
  <rect x="280" y="118" width="120" height="28" rx="4" fill="#6366f1" opacity="0.2"/>
  <rect x="500" y="72" width="220" height="100" rx="12" fill="#1e293b" stroke="#334155" stroke-width="1"/>
  <rect x="520" y="92" width="80" height="14" rx="3" fill="#334155"/>
  <rect x="520" y="118" width="120" height="28" rx="4" fill="#22c55e" opacity="0.2"/>
  <rect x="740" y="72" width="220" height="100" rx="12" fill="#1e293b" stroke="#334155" stroke-width="1"/>
  <rect x="760" y="92" width="80" height="14" rx="3" fill="#334155"/>
  <rect x="760" y="118" width="120" height="28" rx="4" fill="#eab308" opacity="0.2"/>
  <rect x="980" y="72" width="180" height="100" rx="12" fill="#1e293b" stroke="#334155" stroke-width="1"/>
  <rect x="1000" y="92" width="80" height="14" rx="3" fill="#334155"/>
  <rect x="1000" y="118" width="100" height="28" rx="4" fill="#ef4444" opacity="0.2"/>
  <!-- Chart area -->
  <rect x="260" y="196" width="480" height="260" rx="12" fill="#1e293b" stroke="#334155" stroke-width="1"/>
  <rect x="280" y="216" width="120" height="18" rx="4" fill="#334155"/>
  <!-- Bar chart -->
  <rect x="300" y="380" width="40" height="50" rx="4" fill="#6366f1" opacity="0.6"/>
  <rect x="360" y="340" width="40" height="90" rx="4" fill="#6366f1" opacity="0.7"/>
  <rect x="420" y="300" width="40" height="130" rx="4" fill="#6366f1" opacity="0.8"/>
  <rect x="480" y="320" width="40" height="110" rx="4" fill="#6366f1" opacity="0.7"/>
  <rect x="540" y="280" width="40" height="150" rx="4" fill="#6366f1" opacity="0.9"/>
  <rect x="600" y="260" width="40" height="170" rx="4" fill="#6366f1"/>
  <rect x="660" y="310" width="40" height="120" rx="4" fill="#6366f1" opacity="0.75"/>
  <!-- Table area -->
  <rect x="760" y="196" width="400" height="260" rx="12" fill="#1e293b" stroke="#334155" stroke-width="1"/>
  <rect x="780" y="216" width="100" height="18" rx="4" fill="#334155"/>
  <rect x="780" y="250" width="360" height="1" fill="#334155"/>
  <rect x="780" y="266" width="360" height="28" rx="4" fill="#334155" opacity="0.3"/>
  <rect x="780" y="302" width="360" height="28" rx="4" fill="#334155" opacity="0.2"/>
  <rect x="780" y="338" width="360" height="28" rx="4" fill="#334155" opacity="0.3"/>
  <rect x="780" y="374" width="360" height="28" rx="4" fill="#334155" opacity="0.2"/>
  <rect x="780" y="410" width="360" height="28" rx="4" fill="#334155" opacity="0.3"/>
  <!-- Label -->
  <text x="600" y="560" text-anchor="middle" fill="#6366f1" font-family="system-ui" font-size="18" font-weight="600" opacity="0.6">Business Operations Platform</text>
</svg>
