<svg width="1200" height="675" viewBox="0 0 1200 675" fill="none" xmlns="http://www.w3.org/2000/svg">
  <rect width="1200" height="675" fill="#0f172a"/>
  <!-- Top bar -->
  <rect width="1200" height="48" fill="#1e293b"/>
  <circle cx="24" cy="24" r="6" fill="#ef4444"/>
  <circle cx="44" cy="24" r="6" fill="#eab308"/>
  <circle cx="64" cy="24" r="6" fill="#22c55e"/>
  <!-- Navigation -->
  <rect x="40" y="68" width="140" height="28" rx="6" fill="#334155"/>
  <rect x="800" y="72" width="60" height="20" rx="4" fill="#334155" opacity="0.6"/>
  <rect x="880" y="72" width="60" height="20" rx="4" fill="#334155" opacity="0.6"/>
  <rect x="960" y="72" width="60" height="20" rx="4" fill="#334155" opacity="0.6"/>
  <rect x="1060" y="68" width="100" height="28" rx="6" fill="#6366f1"/>
  <!-- Hero section -->
  <rect x="60" y="140" width="500" height="48" rx="6" fill="#334155" opacity="0.5"/>
  <rect x="60" y="200" width="400" height="20" rx="4" fill="#334155" opacity="0.3"/>
  <rect x="60" y="228" width="350" height="20" rx="4" fill="#334155" opacity="0.3"/>
  <rect x="60" y="280" width="140" height="44" rx="8" fill="#6366f1"/>
  <rect x="220" y="280" width="140" height="44" rx="8" fill="#334155" stroke="#6366f1" stroke-width="1"/>
  <!-- Hero image area -->
  <rect x="640" y="120" width="500" height="280" rx="16" fill="#1e293b" stroke="#334155" stroke-width="1"/>
  <circle cx="890" cy="260" r="60" fill="#334155" opacity="0.4"/>
  <!-- Service cards -->
  <rect x="60" y="440" width="260" height="180" rx="12" fill="#1e293b" stroke="#334155" stroke-width="1"/>
  <rect x="80" y="460" width="100" height="20" rx="4" fill="#6366f1" opacity="0.3"/>
  <rect x="80" y="492" width="220" height="12" rx="3" fill="#334155"/>
  <rect x="80" y="512" width="200" height="12" rx="3" fill="#334155"/>
  <rect x="80" y="552" width="80" height="28" rx="6" fill="#334155" opacity="0.5"/>
  <rect x="350" y="440" width="260" height="180" rx="12" fill="#1e293b" stroke="#334155" stroke-width="1"/>
  <rect x="370" y="460" width="100" height="20" rx="4" fill="#6366f1" opacity="0.3"/>
  <rect x="370" y="492" width="220" height="12" rx="3" fill="#334155"/>
  <rect x="370" y="512" width="200" height="12" rx="3" fill="#334155"/>
  <rect x="370" y="552" width="80" height="28" rx="6" fill="#334155" opacity="0.5"/>
  <rect x="640" y="440" width="260" height="180" rx="12" fill="#1e293b" stroke="#334155" stroke-width="1"/>
  <rect x="660" y="460" width="100" height="20" rx="4" fill="#6366f1" opacity="0.3"/>
  <rect x="660" y="492" width="220" height="12" rx="3" fill="#334155"/>
  <rect x="660" y="512" width="200" height="12" rx="3" fill="#334155"/>
  <rect x="660" y="552" width="80" height="28" rx="6" fill="#334155" opacity="0.5"/>
  <!-- AI Chat bubble -->
  <circle cx="1100" cy="580" r="32" fill="#6366f1"/>
  <rect x="1086" y="568" width="28" height="24" rx="4" fill="white" opacity="0.9"/>
  <!-- Label -->
  <text x="600" y="660" text-anchor="middle" fill="#6366f1" font-family="system-ui" font-size="18" font-weight="600" opacity="0.6">Elite Barbers</text>
</svg>
