<svg width="1200" height="675" viewBox="0 0 1200 675" fill="none" xmlns="http://www.w3.org/2000/svg">
  <rect width="1200" height="675" fill="#0f172a"/>
  <!-- Top bar -->
  <rect width="1200" height="48" fill="#1e293b"/>
  <circle cx="24" cy="24" r="6" fill="#ef4444"/>
  <circle cx="44" cy="24" r="6" fill="#eab308"/>
  <circle cx="64" cy="24" r="6" fill="#22c55e"/>
  <!-- Navigation -->
  <rect x="40" y="68" width="180" height="28" rx="6" fill="#334155"/>
  <rect x="780" y="72" width="60" height="20" rx="4" fill="#334155" opacity="0.6"/>
  <rect x="860" y="72" width="60" height="20" rx="4" fill="#334155" opacity="0.6"/>
  <rect x="940" y="72" width="60" height="20" rx="4" fill="#334155" opacity="0.6"/>
  <rect x="1060" y="68" width="100" height="28" rx="6" fill="#6366f1"/>
  <!-- Hero with property image -->
  <rect x="40" y="120" width="580" height="300" rx="16" fill="#1e293b" stroke="#334155" stroke-width="1"/>
  <rect x="56" y="136" width="548" height="200" rx="8" fill="#334155" opacity="0.4"/>
  <rect x="56" y="352" width="200" height="20" rx="4" fill="#334155"/>
  <rect x="56" y="380" width="300" height="16" rx="3" fill="#334155" opacity="0.5"/>
  <!-- Hero text -->
  <rect x="660" y="160" width="460" height="40" rx="6" fill="#334155" opacity="0.5"/>
  <rect x="660" y="216" width="380" height="20" rx="4" fill="#334155" opacity="0.3"/>
  <rect x="660" y="244" width="420" height="20" rx="4" fill="#334155" opacity="0.3"/>
  <rect x="660" y="300" width="160" height="44" rx="8" fill="#6366f1"/>
  <rect x="840" y="300" width="160" height="44" rx="8" fill="#334155" stroke="#6366f1" stroke-width="1"/>
  <!-- Search bar -->
  <rect x="40" y="448" width="1120" height="56" rx="12" fill="#1e293b" stroke="#334155" stroke-width="1"/>
  <rect x="60" y="462" width="200" height="28" rx="6" fill="#334155" opacity="0.5"/>
  <rect x="280" y="462" width="200" height="28" rx="6" fill="#334155" opacity="0.5"/>
  <rect x="500" y="462" width="200" height="28" rx="6" fill="#334155" opacity="0.5"/>
  <rect x="1040" y="462" width="100" height="28" rx="6" fill="#6366f1"/>
  <!-- Property cards -->
  <rect x="40" y="530" width="350" height="120" rx="12" fill="#1e293b" stroke="#334155" stroke-width="1"/>
  <rect x="56" y="546" width="100" height="88" rx="8" fill="#334155" opacity="0.4"/>
  <rect x="172" y="550" width="180" height="16" rx="3" fill="#334155"/>
  <rect x="172" y="574" width="140" height="12" rx="3" fill="#334155" opacity="0.5"/>
  <rect x="172" y="598" width="100" height="24" rx="4" fill="#6366f1" opacity="0.3"/>
  <rect x="420" y="530" width="350" height="120" rx="12" fill="#1e293b" stroke="#334155" stroke-width="1"/>
  <rect x="436" y="546" width="100" height="88" rx="8" fill="#334155" opacity="0.4"/>
  <rect x="552" y="550" width="180" height="16" rx="3" fill="#334155"/>
  <rect x="552" y="574" width="140" height="12" rx="3" fill="#334155" opacity="0.5"/>
  <rect x="552" y="598" width="100" height="24" rx="4" fill="#6366f1" opacity="0.3"/>
  <rect x="800" y="530" width="350" height="120" rx="12" fill="#1e293b" stroke="#334155" stroke-width="1"/>
  <rect x="816" y="546" width="100" height="88" rx="8" fill="#334155" opacity="0.4"/>
  <rect x="932" y="550" width="180" height="16" rx="3" fill="#334155"/>
  <rect x="932" y="574" width="140" height="12" rx="3" fill="#334155" opacity="0.5"/>
  <rect x="932" y="598" width="100" height="24" rx="4" fill="#6366f1" opacity="0.3"/>
</svg>
